#!OML:ASF Y:\EmotionMaleHayes\Project 1\Capture day 1\Session 1\Male1.ASF
:FULLY-SPECIFIED
:DEGREES
223
root 42.2766 17.0346 -1.35739 241.007 95.9746 254.054
lowerback 15.2776 -0.0505754 -10.7707
upperback 3.07091 -1.69693 -1.80084
thorax -5.0018 -0.614362 4.47767
lowerneck -27.8252 2.46341 1.23209
upperneck 20.2597 2.87789 0.163352
head 11.1498 1.42742 0.357846
rclavicle 4.42063e-015 4.65156e-014
rhumerus -62.0119 11.9924 -92.2844
rradius 63.4238
rwrist -22.5869
rhand -26.1049 -32.5947
rfingers 7.12502
rthumb 0.444389 -62.574
lclavicle 4.42063e-015 4.65156e-014
lhumerus -33.901 -31.5111 87.4712
lradius 88.1913
lwrist 20.4435
lhand -28.9866 -28.4837
lfingers 7.12502
lthumb -2.33882 1.48326
rfemur -12.1514 -3.84924 8.6916
rtibia 46.5598
rfoot -14.1437 -0.113779
rtoes -2.08732
lfemur 6.10874 6.74043 -26.0353
ltibia 26.578
lfoot -12.9723 6.04193
ltoes 1.45163
224
root 42.3964 17.1041 -1.33784 240.039 96.1547 252.868
lowerback 14.7521 0.00339101 -10.8282
upperback 3.10198 -1.56625 -1.85051
thorax -4.7009 -0.567654 4.42097
lowerneck -27.7767 2.3855 1.05321
upperneck 20.3571 2.7954 0.351663
head 11.1715 1.40169 0.442412
rclavicle 3.68357e-014 4.37326e-014
rhumerus -62.4407 11.5731 -91.8315
rradius 62.4892
rwrist -22.5823
rhand -25.4882 -32.4178
rfingers 7.12502
rthumb 1.04004 -62.395
lclavicle 3.68357e-014 4.37326e-014
lhumerus -33.2751 -31.9809 87.0521
lradius 88.6506
lwrist 20.2581
lhand -28.9998 -28.753
lfingers 7.12502
lthumb -2.35151 1.21383
rfemur -12.024 -3.29507 8.83247
rtibia 44.2172
rfoot -14.4498 -0.184685
rtoes -2.17651
lfemur 6.82383 6.81588 -25.9297
ltibia 25.5783
lfoot -12.3754 6.08758
ltoes -0.7897
225
root 42.5208 17.1694 -1.31725 236.623 95.8919 249.458
lowerback 14.7457 0.0163753 -10.4154
upperback 2.96436 -1.50172 -1.75309
thorax -4.86686 -0.532523 4.28482
lowerneck -27.5681 2.37944 1.03676
upperneck 20.6134 2.78108 0.432417
head 11.2295 1.40638 0.472841
rclavicle 6.45623e-015 -1.47101e-014
rhumerus -63.3366 11.2429 -91.5142
rradius 61.783
rwrist -22.4866
rhand -24.6844 -32.8793
rfingers 7.12502
rthumb 1.81639 -62.8513
lclavicle 6.45623e-015 -1.47101e-014
lhumerus -33.2712 -32.1679 86.8625
lradius 89.2307
lwrist 20.0864
lhand -28.9209 -28.9678
lfingers 7.12502
lthumb -2.2753 0.999826
rfemur -11.4627 -2.62672 9.57509
rtibia 41.7684
rfoot -14.763 -0.227595
rtoes -1.5982
lfemur 7.87035 6.92318 -25.1828
ltibia 24.5523
lfoot -12.0452 5.93001
ltoes -0.899854
226
root 42.6501 17.2268 -1.30207 236.748 95.8521 249.519
lowerback 14.575 -0.0223137 -10.28
upperback 2.83248 -1.52807 -1.75626
thorax -4.91654 -0.543779 4.20848
lowerneck -27.5013 2.33215 1.0419
upperneck 20.9807 2.71658 0.450117
head 11.3564 1.38121 0.470835
rclavicle 5.54733e-015 -3.97569e-016
rhumerus -64.2871 10.9039 -91.1659
rradius 61.3244
rwrist -22.5194
rhand -24.0033 -33.2693
rfingers 7.12502
rthumb 2.47418 -63.2347
lclavicle 5.54733e-015 -3.97569e-016
lhumerus -33.1757 -32.3921 86.655
lradius 89.6977
lwrist 20.0084
lhand -28.9011 -29.1307
lfingers 7.12502
lthumb -2.25624 0.837082
rfemur -10.8803 -2.33903 9.76722
rtibia 39.3663
rfoot -14.818 -0.227884
rtoes -0.73208
lfemur 8.78938 6.8983 -25.0086
ltibia 23.6003
lfoot -11.7691 5.75844
ltoes 0.00955971
227
root 42.7724 17.2883 -1.29122 242.287 96.4215 254.579
lowerback 13.8533 -0.112016 -10.882
upperback 2.72459 -1.66155 -1.97361
thorax -4.60365 -0.614831 4.32058
lowerneck -27.3935 2.32897 0.943709
upperneck 21.0484 2.70831 0.624827
head 11.3583 1.39408 0.549605
rclavicle -3.85766e-015 1.70955e-014
rhumerus -64.8702 10.5842 -90.7767
rradius 60.6976
rwrist -22.6211
rhand -23.634 -33.1742
rfingers 7.12502
rthumb 2.83083 -63.1352
lclavicle -3.85766e-015 1.70955e-014
lhumerus -32.7455 -32.5696 86.2826
lradius 90.0289
lwrist 19.7447
lhand -28.949 -29.3156
lfingers 7.12502
lthumb -2.30247 0.651733
rfemur -10.7493 -2.55521 8.92881
rtibia 36.9893
rfoot -14.8161 -0.201663
rtoes -0.593252
lfemur 9.06153 6.75984 -25.963
ltibia 22.8891
lfoot -11.3681 5.564
ltoes -0.794934
228
root 42.8858 17.3298 -1.26124 241.547 96.6573 253.727
lowerback 13.6237 -0.0336708 -11.14
upperback 2.69319 -1.5684 -2.00601
thorax -4.51796 -0.569648 4.40955
lowerneck -27.39 2.38959 1.0456
upperneck 21.1806 2.76553 0.581572
head 11.4103 1.42282 0.528576
rclavicle 3.46941e-015 1.98785e-014
rhumerus -65.327 10.2076 -90.3983
rradius 59.9929
rwrist -22.6488
rhand -23.2721 -33.2197
rfingers 7.12502
rthumb 3.18036 -63.1758
lclavicle 3.46941e-015 1.98785e-014
lhumerus -32.3098 -32.6731 85.9032
lradius 90.2841
lwrist 19.4239
lhand -29.002 -29.5207
lfingers 7.12502
lthumb -2.3536 0.446022
rfemur -10.4159 -1.70543 9.04976
rtibia 35.0025
rfoot -15.3382 -0.471034
rtoes 1.65379
lfemur 9.67048 6.79252 -25.9137
ltibia 22.2526
lfoot -10.956 5.57605
ltoes -3.04707
229
root 43.0037 17.3721 -1.22707 239.944 96.9159 251.856
lowerback 13.3878 0.0913677 -11.4827
upperback 2.44092 -1.44754 -1.94548
thorax -4.66727 -0.492957 4.64285
lowerneck -27.2956 2.39584 1.16661
upperneck 21.5581 2.80228 0.337578
head 11.5434 1.41749 0.427997
rclavicle -1.99779e-014 -2.82274e-014
rhumerus -66.1738 9.95966 -90.016
rradius 59.5241
rwrist -22.666
rhand -22.7294 -33.7875
rfingers 7.12502
rthumb 3.70444 -63.735
lclavicle -1.99779e-014 -2.82274e-014
lhumerus -32.3713 -32.704 85.8546
lradius 90.6058
lwrist 19.2514
lhand -29.0664 -29.6821
lfingers 7.12502
lthumb -2.4158 0.283938
rfemur -10.3697 -0.81637 9.23743
rtibia 33.1723
rfoot -15.6591 -1.02926
rtoes 2.52243
lfemur 10.0617 6.9178 -25.7923
ltibia 21.7247
lfoot -10.7789 5.61952
ltoes -3.88883
230
root 43.1111 17.3951 -1.22408 244.401 96.8258 256.14
lowerback 13.4036 -0.118112 -11.3409
upperback 2.28372 -1.72681 -1.98598
thorax -4.80649 -0.620976 4.56839
lowerneck -27.0841 2.4694 1.196
upperneck 21.6306 2.92765 0.239506
head 11.5352 1.46439 0.406939
rclavicle -4.47266e-016 -1.59028e-014
rhumerus -66.9094 9.80007 -89.666
rradius 59.207
rwrist -22.6405
rhand -22.0885 -34.6413
rfingers 7.12502
rthumb 4.32331 -64.5772
lclavicle -4.47266e-016 -1.59028e-014
lhumerus -32.39 -32.6188 85.6982
lradius 90.9781
lwrist 19.0234
lhand -29.0814 -29.7723
lfingers 7.12502
lthumb -2.43035 0.193618
rfemur -9.82059 -1.45171 9.00569
rtibia 31.1437
rfoot -15.5802 -0.910379
rtoes 1.95516
lfemur 10.4362 6.64296 -26.0444
ltibia 21.4304
lfoot -10.8424 5.34243
ltoes -3.40462
231
root 43.2222 17.426 -1.17581 244.135 97.1781 255.526
lowerback 13.0346 0.0168156 -11.946
upperback 2.09827 -1.60097 -1.98632
thorax -4.80407 -0.54502 4.87769
lowerneck -27.1079 2.35209 1.01631
upperneck 21.8574 2.79512 0.406458
head 11.62 1.41301 0.478182
rclavicle -2.24254e-015 2.38542e-014
rhumerus -67.5797 9.43236 -89.2991
rradius 58.8737
rwrist -22.6385
rhand -21.611 -35.0508
rfingers 7.12502
rthumb 4.78434 -64.9768
lclavicle -2.24254e-015 2.38542e-014
lhumerus -32.326 -32.6355 85.4791
lradius 91.2219
lwrist 18.7443
lhand -28.9153 -29.9134
lfingers 7.12502
lthumb -2.26994 0.0542808
rfemur -9.71303 -0.36972 9.06207
rtibia 29.1561
rfoot -15.6153 -1.71557
rtoes 1.71508
lfemur 10.5059 6.77367 -26.0065
ltibia 21.2724
lfoot -10.9146 5.2717
ltoes -3.67059
232
root 43.3599 17.4467 -1.18811 250.788 98.1281 262.183
lowerback 12.8041 -0.0768493 -12.5375
upperback 2.03122 -1.78505 -2.39683
thorax -4.71066 -0.624804 4.79006
lowerneck -27.006 2.20395 0.648369
upperneck 22.0412 2.65901 0.711791
head 11.6608 1.36358 0.629398
rclavicle -1.06101e-014 -4.85035e-014
rhumerus -68.3253 9.05302 -88.9415
rradius 58.554
rwrist -22.8861
rhand -21.54 -34.8662
rfingers 7.12502
rthumb 4.85296 -64.7906
lclavicle -1.06101e-014 -4.85035e-014
lhumerus -32.2467 -32.7612 85.346
lradius 91.3416
lwrist 18.5825
lhand -28.794 -30.0767
lfingers 7.12502
lthumb -2.15278 -0.107865
rfemur -8.74396 -1.55155 7.33731
rtibia 27.01
rfoot -15.1727 -0.640355
rtoes 3.96439
lfemur 11.2296 6.53253 -27.7286
ltibia 20.7679
lfoot -10.9413 5.07829
ltoes -4.7658
